<svg width="196" height="181" viewBox="0 0 196 181" fill="none" xmlns="http://www.w3.org/2000/svg">
<rect x="0.580078" y="1.52917" width="193.84" height="177" rx="88.5" fill="white"/>
<path d="M195.067 83.8426C195.061 82.9386 193.845 82.6433 193.428 83.4451C189.399 91.1988 178.197 111.2 165.462 120.397C144.728 135.371 127.231 163.062 134.795 180.873C134.795 180.873 195.716 182.319 195.067 83.8426Z" fill="#BDD0FB"/>
<path opacity="0.43" d="M190.99 95.2554C190.913 95.52 190.828 95.7324 190.748 95.9649L190.494 96.6449L189.972 97.9977C189.619 98.8968 189.251 99.7908 188.883 100.684C188.141 102.469 187.378 104.244 186.598 106.012C185.031 109.546 183.369 113.036 181.655 116.5C179.945 119.968 178.139 123.387 176.261 126.767C174.38 130.145 172.451 133.498 170.412 136.786C166.348 143.367 161.922 149.734 157.064 155.763C154.603 158.751 152.064 161.676 149.36 164.448C146.637 167.199 143.796 169.836 140.775 172.254C140.71 172.307 140.613 172.296 140.561 172.23C140.51 172.166 140.519 172.073 140.58 172.02L140.582 172.019C143.496 169.495 146.269 166.819 148.904 164.012C151.548 161.212 154.027 158.261 156.426 155.251C158.823 152.237 161.098 149.128 163.302 145.97C165.505 142.81 167.576 139.561 169.629 136.3C173.707 129.76 177.434 123.005 180.972 116.155C182.734 112.726 184.427 109.26 186.058 105.766C186.877 104.02 187.679 102.266 188.46 100.503L189.609 97.8487L190.17 96.5164L190.443 95.8481C190.529 95.6279 190.625 95.3922 190.692 95.1964L190.704 95.1642C190.731 95.0852 190.816 95.043 190.895 95.0702C190.97 95.0964 191.012 95.1786 190.99 95.2554Z" fill="white"/>
<path d="M170.548 45.5885C170.296 44.7611 169.1 44.8217 168.937 45.6713C167.357 53.8809 162.541 75.2788 153.371 87.1871C138.442 106.576 129.95 136.743 141.745 151.013C141.745 151.013 198.008 135.719 170.548 45.5885Z" fill="#91B3FA"/>
<path opacity="0.43" d="M169.925 57.1665C169.927 57.4312 169.908 57.6486 169.897 57.8838L169.85 58.5766L169.741 59.96C169.662 60.8813 169.569 61.801 169.476 62.7212C169.283 64.5599 169.067 66.3965 168.835 68.2308C168.362 71.8983 167.791 75.553 167.164 79.1977C166.543 82.8441 165.819 86.4727 165.019 90.0846C164.216 93.696 163.361 97.2967 162.388 100.868C160.456 108.013 158.134 115.059 155.323 121.913C153.881 125.324 152.35 128.7 150.626 131.979C148.879 135.245 146.992 138.438 144.88 141.479C144.833 141.546 144.741 141.563 144.673 141.516C144.608 141.47 144.59 141.381 144.633 141.315L144.634 141.313C146.616 138.203 148.429 134.992 150.079 131.699C151.739 128.41 153.207 125.028 154.584 121.613C155.96 118.195 157.199 114.724 158.358 111.226C159.516 107.728 160.529 104.182 161.522 100.633C163.478 93.5236 165.052 86.312 166.43 79.0648C167.11 75.4396 167.718 71.7999 168.261 68.1502C168.536 66.3259 168.793 64.4988 169.029 62.6689L169.359 59.9216L169.511 58.5471L169.578 57.8599C169.597 57.6347 169.621 57.3923 169.629 57.1949L169.63 57.1615C169.634 57.0804 169.702 57.017 169.783 57.0209C169.863 57.0242 169.925 57.0887 169.925 57.1665Z" fill="white"/>
<path d="M143.803 178.551H81.1955C75.0374 178.551 69.999 172.991 69.999 166.197V14.3539C69.999 7.55909 75.0374 1.99988 81.1955 1.99988H143.803C149.961 1.99988 154.999 7.55909 154.999 14.3539V166.195C155 172.991 149.961 178.551 143.803 178.551Z" fill="#1A132E"/>
<path d="M150.786 15.524V163.847C150.786 168.878 147.082 172.995 142.556 172.995H82.4401C77.9147 172.995 74.2114 168.878 74.2114 163.847V15.524C74.2114 10.4925 77.9147 6.3761 82.4401 6.3761H142.556C147.082 6.3761 150.786 10.4925 150.786 15.524Z" fill="#C0D8FB"/>
<path d="M142.556 6.3761L83.1842 172.993H82.4401C77.9147 172.993 74.2114 168.877 74.2114 163.845V15.524C74.2114 10.4925 77.9147 6.3761 82.4401 6.3761H142.556Z" fill="#CBE1FD"/>
<path d="M125.062 11.8924H99.9364C97.8904 11.8924 96.2158 10.0447 96.2158 7.78717V7.14149C96.2158 4.88401 97.8904 3.03625 99.9364 3.03625H125.062C127.108 3.03625 128.782 4.88401 128.782 7.14149V7.78717C128.782 10.0447 127.109 11.8924 125.062 11.8924Z" fill="#1A132E"/>
<path d="M86.8671 16.1246L85.6458 16.9998L84.4185 16.1328C84.6903 15.7498 85.1392 15.4965 85.6458 15.4965C86.1504 15.4965 86.5952 15.7436 86.8671 16.1246Z" fill="#6A6A6A"/>
<path d="M85.6474 13.3608C84.42 13.3608 83.3347 13.9724 82.6777 14.9053L83.4521 15.449C83.9401 14.7591 84.7433 14.3102 85.6474 14.3102C86.5453 14.3102 87.3443 14.7529 87.8303 15.4325L88.6026 14.8785C87.9415 13.958 86.8624 13.3608 85.6474 13.3608Z" fill="#6A6A6A"/>
<path d="M85.6436 9.30188C83.0468 9.30188 80.7505 10.5931 79.3584 12.5681L80.1348 13.1117C81.3539 11.3839 83.3701 10.2513 85.6436 10.2513C87.8987 10.2513 89.9025 11.3654 91.1258 13.0706L91.8939 12.5166C90.4997 10.5705 88.2199 9.30188 85.6436 9.30188Z" fill="#6A6A6A"/>
<path d="M85.6443 11.5241C83.797 11.5241 82.1598 12.4385 81.1631 13.8389L81.9374 14.3825C82.7632 13.2293 84.1162 12.4735 85.6443 12.4735C87.16 12.4735 88.5048 13.2169 89.3327 14.3537L90.1008 13.8039C89.102 12.422 87.4772 11.5241 85.6443 11.5241Z" fill="#6A6A6A"/>
<path d="M138.922 96.5114L87.7938 95.5298C86.1267 95.4978 84.8716 97.4394 85.0094 99.8445C85.1456 102.225 86.8839 102.943 88.5179 102.917L138.536 103.318C139.56 103.302 140.474 101.797 140.587 99.9425C140.7 98.0732 139.959 96.5311 138.922 96.5114Z" fill="white"/>
<path d="M117.109 98.6559L89.3616 98.3674C88.4568 98.3581 87.7766 98.8789 87.8525 99.5251C87.9273 100.165 88.8713 100.358 89.7579 100.352L116.902 100.484C117.458 100.48 117.953 100.076 118.013 99.5782C118.074 99.0766 117.672 98.6621 117.109 98.6559Z" fill="url(#paint0_linear_4680_106968)"/>
<path d="M112.608 86.2151C125.093 86.2151 135.215 76.0934 135.215 63.6075C135.215 51.1217 125.093 40.9999 112.608 40.9999C100.122 40.9999 90 51.1217 90 63.6075C90 76.0934 100.122 86.2151 112.608 86.2151Z" fill="white"/>
<path d="M119.94 55.4686C119.94 59.326 116.813 63.49 112.956 63.49C109.098 63.49 105.972 59.326 105.972 55.4686C105.972 51.6112 109.098 48.8748 112.956 48.8748C116.813 48.8748 119.94 51.6112 119.94 55.4686Z" fill="url(#paint1_linear_4680_106968)"/>
<path d="M104.289 78.3404H121.338C123.132 78.3404 124.722 77.1802 125.269 75.4714L126.186 72.6039C126.858 70.5043 125.766 68.2314 123.696 67.4743C116.757 64.9376 109.583 65.2627 102.233 67.7086C100.174 68.3935 99.0318 70.5962 99.6 72.6901L100.307 75.2943C100.794 77.0919 102.426 78.3404 104.289 78.3404Z" fill="url(#paint2_linear_4680_106968)"/>
<path d="M139.06 112.193L87.932 111.212C86.2649 111.18 85.0098 113.121 85.1476 115.526C85.2838 117.907 87.0221 118.625 88.6561 118.599L138.674 119C139.698 118.984 140.612 117.479 140.725 115.625C140.838 113.756 140.098 112.214 139.06 112.193Z" fill="white"/>
<path d="M92.8315 114.85C92.7995 115.855 91.9613 116.66 90.9596 116.65C89.9563 116.639 89.1682 115.814 89.2007 114.808C89.2332 113.802 90.0734 112.996 91.0767 113.009C92.0785 113.022 92.864 113.846 92.8315 114.85Z" fill="url(#paint3_linear_4680_106968)"/>
<path d="M99.6248 114.929C99.5928 115.929 98.7619 116.732 97.7679 116.721C96.7728 116.711 95.9909 115.89 96.0234 114.887C96.0554 113.885 96.8895 113.083 97.8845 113.096C98.878 113.108 99.6568 113.929 99.6248 114.929Z" fill="url(#paint4_linear_4680_106968)"/>
<path d="M106.907 115.05C106.875 116.054 106.037 116.859 105.035 116.849C104.032 116.838 103.244 116.014 103.276 115.007C103.309 114.001 104.149 113.196 105.152 113.208C106.154 113.221 106.94 114.045 106.907 115.05Z" fill="url(#paint5_linear_4680_106968)"/>
<path d="M121.31 115.221C121.278 116.221 120.447 117.023 119.453 117.013C118.458 117.003 117.676 116.181 117.708 115.179C117.74 114.177 118.575 113.375 119.57 113.387C120.563 113.4 121.342 114.221 121.31 115.221Z" fill="url(#paint6_linear_4680_106968)"/>
<path d="M128.593 115.341C128.561 116.345 127.723 117.15 126.721 117.14C125.718 117.129 124.93 116.305 124.962 115.298C124.995 114.292 125.835 113.487 126.838 113.499C127.84 113.513 128.626 114.337 128.593 115.341Z" fill="url(#paint7_linear_4680_106968)"/>
<path d="M113.7 115.128C113.668 116.129 112.837 116.931 111.843 116.92C110.848 116.91 110.066 116.089 110.098 115.087C110.131 114.084 110.964 113.282 111.959 113.295C112.953 113.308 113.732 114.128 113.7 115.128Z" fill="url(#paint8_linear_4680_106968)"/>
<path d="M87.299 82.5142C87.299 82.5142 85.5222 81.2889 84.3827 81.2848C82.9245 81.2766 80.0531 80.7211 79.3791 79.9941C78.7052 79.2671 75.5356 76.4487 75.5356 76.4487L71.6431 79.0832C71.6431 79.0832 84.9913 88.1958 86.0777 88.1999C87.1642 88.204 83.1328 85.8881 83.3942 85.6471C83.6556 85.4061 87.5768 89.0576 88.0424 88.2489C88.5121 87.4402 83.8108 85.4469 83.8558 84.8424C83.9007 84.2379 88.5366 88.1631 89.231 87.5259C89.9254 86.8887 84.1498 84.0459 84.1498 84.0459C84.1498 84.0459 84.4276 83.6375 86.0941 84.3114C87.7606 84.9813 89.2841 85.7206 89.3208 85.1937C89.3576 84.6668 84.7421 83.278 84.8034 82.4775L87.299 82.5142Z" fill="#A8614F"/>
<path d="M50.4447 33.4714C59.5082 34.7662 57.0412 64.2605 63.5968 67.6506C68.1796 70.0197 74.6454 75.5297 78.1213 78.6298C76.6142 79.3895 75.8299 80.5169 75.446 81.9015C69.552 79.1526 58.0705 73.8428 56.8982 71.8373C55.3379 69.1619 48.2554 37.5314 48.2554 37.5314C48.2554 37.5314 49.3051 33.308 50.4447 33.4714Z" fill="#860068"/>
<path d="M38.465 167.742L37.9136 170.764C37.9136 170.764 39.335 175.392 41.4875 177.549C43.6401 179.701 48.2719 179.84 48.2719 178.006C48.2719 176.172 43.444 170.491 43.444 168.289C43.444 166.088 38.465 167.742 38.465 167.742Z" fill="#223B7C"/>
<path d="M53.1317 168.289L52.3066 173.881C52.3066 173.881 55.6069 173.881 57.8983 173.881C60.1898 173.881 66.5126 173.881 66.5126 173.881C66.5126 173.881 66.0551 172.504 61.9298 171.679C57.8044 170.854 57.6288 169.298 57.6288 169.298L57.8983 165.814L54.1406 165.262L53.1317 168.289Z" fill="#223B7C"/>
<path d="M42.9985 87.5912L55.5584 133.763L52.4869 169.298H57.8948L65.3204 131.72L57.8948 88.6899L42.9985 87.5912Z" fill="#1B2E96"/>
<path d="M53.9249 87.146L53.9209 99.2321C53.9209 99.2321 45.2494 129.335 44.0118 143.819C42.7742 158.302 44.0118 168.199 44.0118 168.199L37.1825 169.298C37.1825 169.298 33.241 139.236 34.7073 129.151C36.1736 119.071 34.3805 94.5063 34.3805 94.5063L36.8231 84.4462L53.9249 87.146Z" fill="#7C8BDE"/>
<path d="M37.1979 32.2093C37.1979 32.2093 43.3982 29.8158 50.444 33.4714C56.7832 36.7595 59.7077 74.721 59.479 88.6042C49.525 90.7078 32.6519 92.4478 32.6519 92.4478L35.1434 66.2374L33.5219 53.2854C33.5219 53.2895 29.9806 35.0276 37.1979 32.2093Z" fill="#C20095"/>
<path d="M49.656 27.3406C49.656 27.3406 49.8234 33.2877 49.3782 34.7417C48.9371 36.1999 44.7668 37.4294 42.8267 35.4565C40.8865 33.4878 41.8137 19.4779 41.8137 19.4779L49.656 27.3406Z" fill="#A8614F"/>
<path d="M41.6538 22.8599C41.7192 20.883 41.8131 19.482 41.8131 19.482L49.6554 27.3406C49.6554 27.3406 49.6921 28.5823 49.684 30.0731C48.6792 30.261 47.4252 29.9915 45.914 29.15C43.9411 28.0472 42.532 25.2657 41.6538 22.8599Z" fill="#804630"/>
<path d="M48.949 8.76425C48.949 8.76425 50.9586 9.38918 52.5311 12.7466C54.1037 16.1041 54.4141 22.3739 53.3153 25.4168C52.6618 27.2263 50.836 27.9615 47.6624 26.8137C44.4887 25.666 41.8215 20.9524 40.8739 18.9224C39.9181 16.8883 40.6533 8.10256 48.949 8.76425Z" fill="#A8614F"/>
<path d="M51.0771 13.6656C51.0771 13.6656 52.4168 15.7324 54.5163 15.2545C56.6157 14.7766 55.8233 12.9753 56.3747 11.4518C56.9261 9.93238 61.0678 4.75321 54.6184 2.42095C48.1689 0.0886943 47.2254 8.20871 45.1178 8.13519C43.0102 8.06167 38.9584 6.71378 38.4233 9.90378C37.8882 13.0897 39.8324 13.2408 38.7664 14.8542C37.7003 16.4635 40.5881 18.5303 41.1436 19.3799C41.6991 20.2294 43.8884 19.6168 42.8019 17.2968C41.7154 14.9768 43.5657 12.7997 44.0722 13.8821C44.305 14.3804 46.2369 15.6956 47.107 14.4294C47.977 13.1632 49.1533 14.4825 50.0927 14.5479C51.0322 14.6132 51.0771 13.6656 51.0771 13.6656Z" fill="#253943"/>
<path d="M42.3848 21.0341C42.246 20.6706 42.3481 17.2314 40.4488 17.9666C38.5495 18.7018 39.5216 22.0511 41.1391 22.1451C42.7606 22.235 42.3848 21.0341 42.3848 21.0341Z" fill="#A8614F"/>
<path d="M41.7972 19.87C41.7972 19.87 41.303 18.4037 40.58 18.951C39.8571 19.4984 40.6331 21.4385 41.5031 21.5284C42.3731 21.6182 41.7972 19.87 41.7972 19.87Z" fill="#804630"/>
<path d="M48.6761 18.1218C48.6924 18.5793 48.9661 18.9428 49.2847 18.9305C49.6033 18.9183 49.8483 18.5384 49.832 18.0809C49.8157 17.6235 49.542 17.26 49.2234 17.2722C48.9048 17.2845 48.6597 17.6643 48.6761 18.1218Z" fill="#1A132E"/>
<path d="M52.0418 18.0033C52.0581 18.4608 52.3318 18.8243 52.6504 18.8121C52.969 18.7998 53.214 18.4199 53.1977 17.9625C53.1814 17.505 52.9077 17.1415 52.5891 17.1537C52.2664 17.1619 52.0255 17.5418 52.0418 18.0033Z" fill="#1A132E"/>
<path d="M49.4971 24.3998C48.766 24.0321 48.4065 23.3378 48.427 23.3664C48.3248 23.1989 48.0757 23.3664 48.19 23.5216C48.5291 23.9913 48.9008 24.3303 49.4277 24.5427C50.1833 24.8613 51.0002 24.8123 50.9961 24.7633C50.9961 24.7551 50.9879 24.7469 50.9798 24.7469C50.8123 24.7306 50.2364 24.7878 49.4971 24.3998Z" fill="#1A132E"/>
<path d="M49.1497 15.2382L49.3457 15.761C49.3457 15.761 48.4798 15.4914 47.9243 16.2552C47.9243 16.2552 48.443 15.1401 49.1497 15.2382Z" fill="#1A132E"/>
<path d="M53.1321 16.2634C53.1321 16.2634 52.499 15.8631 52.0742 15.8754L52.2866 15.4669C52.2866 15.4669 53.1158 15.8018 53.1321 16.2634Z" fill="#1A132E"/>
<path d="M51.8576 22.7945C51.8576 22.7659 52.5479 20.4132 51.441 16.8106C51.3879 16.6309 51.1142 16.7126 51.1714 16.8923C51.1796 16.925 52.1313 20.0864 51.6411 22.4677C50.8079 22.3656 50.4893 22.1573 50.4484 22.3983C50.4035 22.6474 50.7711 22.5535 51.8576 22.7945Z" fill="#1A132E"/>
<path d="M37.7593 162.464L37.3508 158.478C37.3345 158.315 37.4529 158.168 37.6163 158.151C37.7797 158.139 37.9267 158.253 37.9431 158.417L38.3515 162.403C38.3679 162.567 38.2494 162.714 38.086 162.73C38.0738 162.73 38.0656 162.73 38.0574 162.73C37.9022 162.734 37.7756 162.62 37.7593 162.464ZM36.9383 154.492L36.5257 150.505C36.5094 150.342 36.6279 150.195 36.7912 150.178C36.9587 150.162 37.1017 150.28 37.118 150.444L37.5305 154.43C37.5469 154.594 37.4284 154.741 37.265 154.757C37.2569 154.757 37.2446 154.757 37.2324 154.757C37.0853 154.761 36.9546 154.647 36.9383 154.492ZM36.1132 146.523L35.7905 143.463C35.7579 143.153 35.7293 142.842 35.7007 142.528C35.6843 142.365 35.8069 142.222 35.9702 142.205C36.1295 142.193 36.2766 142.312 36.2929 142.475C36.3174 142.781 36.3501 143.092 36.3787 143.394L36.7014 146.453C36.7177 146.617 36.5993 146.764 36.4359 146.78C36.4236 146.78 36.4155 146.78 36.4032 146.78C36.2562 146.788 36.1255 146.674 36.1132 146.523ZM35.5332 138.505V138.366C35.5332 137.124 35.574 135.817 35.6598 134.481C35.6721 134.318 35.815 134.191 35.9743 134.204C36.1377 134.216 36.2643 134.355 36.2521 134.518C36.1704 135.842 36.1255 137.136 36.1255 138.366V138.501C36.1255 138.664 35.9948 138.799 35.8314 138.799C35.668 138.799 35.5332 138.668 35.5332 138.505ZM36.2807 130.805C36.1173 130.789 35.9988 130.638 36.0193 130.475C36.1622 129.217 36.346 127.877 36.5584 126.492C36.5829 126.329 36.734 126.219 36.8974 126.243C37.0608 126.268 37.1711 126.419 37.1466 126.582C36.9342 127.959 36.7504 129.286 36.6074 130.54C36.5911 130.691 36.4604 130.801 36.3133 130.801C36.3011 130.81 36.2929 130.81 36.2807 130.805ZM37.4774 122.886C37.3141 122.857 37.2079 122.702 37.2405 122.538C37.4693 121.301 37.7266 120.014 38.0166 118.601C38.0493 118.442 38.2086 118.335 38.3679 118.368C38.5272 118.401 38.6334 118.56 38.6007 118.719C38.3066 120.129 38.0534 121.411 37.8246 122.645C37.796 122.788 37.6735 122.886 37.5346 122.886C37.5142 122.89 37.4938 122.89 37.4774 122.886ZM39.0867 115.039C38.9274 115.002 38.8253 114.843 38.8621 114.684L38.9928 114.088C39.2174 113.075 39.4298 111.959 39.6259 110.771C39.6504 110.607 39.8056 110.501 39.969 110.526C40.1324 110.554 40.2426 110.706 40.2141 110.869C40.018 112.07 39.8015 113.197 39.5769 114.222L39.4421 114.819C39.4094 114.958 39.2869 115.051 39.1521 115.051C39.1276 115.043 39.1072 115.043 39.0867 115.039ZM40.4346 107.144C40.2712 107.123 40.1569 106.976 40.1732 106.813C40.3203 105.563 40.455 104.223 40.5776 102.835C40.5939 102.671 40.7328 102.545 40.9003 102.565C41.0636 102.577 41.1862 102.724 41.1698 102.888C41.0514 104.285 40.9125 105.628 40.7655 106.882C40.7491 107.034 40.6184 107.144 40.4714 107.144C40.4591 107.148 40.4469 107.144 40.4346 107.144ZM41.1494 99.1627C40.986 99.1545 40.8594 99.0116 40.8717 98.8482C40.9534 97.5411 41.0187 96.1973 41.0718 94.8535C41.08 94.6901 41.2229 94.5554 41.3822 94.5676C41.5456 94.5758 41.6722 94.7146 41.6681 94.878C41.615 96.2259 41.5456 97.5779 41.468 98.8849C41.4598 99.0442 41.3291 99.1627 41.1698 99.1627C41.1617 99.1627 41.1535 99.1627 41.1494 99.1627Z" fill="#12289E"/>
<path d="M38.6693 168.767C38.6775 168.767 38.6897 168.767 38.6979 168.767C38.8613 168.751 38.9797 168.603 38.9634 168.44L38.751 166.373C38.7347 166.21 38.5835 166.096 38.4242 166.108C38.2609 166.124 38.1424 166.271 38.1587 166.435L38.3711 168.501C38.3916 168.657 38.5182 168.767 38.6693 168.767Z" fill="#12289E"/>
<path d="M39.1799 92.1005L42.57 95.4907L38.6367 98.2477L37.4971 94.2817L39.1799 92.1005Z" fill="#A8614F"/>
<path d="M44.155 94.2082V94.5799V96.2872L36.6068 101.344L36.084 99.6324L44.155 94.2082Z" fill="#1B2E96"/>
<path d="M36.4555 32.5769C36.4555 32.5769 40.4216 39.5696 39.4046 45.8148C38.3875 52.06 32.1423 63.3578 30.8067 66.9277C29.4669 70.4975 40.9158 92.8725 40.9158 92.8725L37.346 96.8345C37.346 96.8345 19.999 71.8168 19.999 65.8657C19.999 59.9146 30.9496 33.7859 36.4555 32.5769Z" fill="#DB00AB"/>
<path d="M26.6433 13.2498C26.7521 13.2498 26.8386 13.1633 26.8386 13.0545C26.8386 2.71004 34.2162 0.403299 34.2904 0.381048C34.3942 0.351379 34.4536 0.242595 34.4214 0.138755C34.3918 0.034915 34.283 -0.0219496 34.1791 0.00771904C34.1025 0.0299705 26.448 2.42324 26.448 13.057C26.448 13.1608 26.537 13.2498 26.6433 13.2498Z" fill="#172866"/>
<path d="M29.4748 12.4817C29.5458 12.4817 29.6022 12.4253 29.6022 12.3543C29.6022 5.60795 34.4137 4.10355 34.4621 4.08904C34.5298 4.06969 34.5685 3.99875 34.5475 3.93103C34.5282 3.8633 34.4572 3.82622 34.3895 3.84557C34.3395 3.86008 29.3475 5.4209 29.3475 12.3559C29.3475 12.4236 29.4055 12.4817 29.4748 12.4817Z" fill="#172866"/>
<path d="M18.1515 72.5701C16.9673 72.5701 16.0167 72.1559 15.3245 71.3358C13.3814 69.0397 14.1375 64.3808 14.1709 64.1835C14.1903 64.0639 14.3071 63.9833 14.4239 64.0028C14.5434 64.0222 14.624 64.1362 14.6045 64.2557C14.5962 64.303 13.8484 68.9119 15.6608 71.0523C16.2668 71.7667 17.1063 72.1308 18.1543 72.1308C18.2766 72.1308 18.3739 72.2281 18.3739 72.3504C18.3711 72.47 18.2738 72.5701 18.1515 72.5701Z" fill="#172866"/>
<defs>
<linearGradient id="paint0_linear_4680_106968" x1="116.744" y1="98.3673" x2="116.709" y2="100.895" gradientUnits="userSpaceOnUse">
<stop stop-color="#825EE4"/>
<stop offset="1" stop-color="#5E72E4"/>
</linearGradient>
<linearGradient id="paint1_linear_4680_106968" x1="119.349" y1="48.8748" x2="115.869" y2="65.6067" gradientUnits="userSpaceOnUse">
<stop stop-color="#825EE4"/>
<stop offset="1" stop-color="#5E72E4"/>
</linearGradient>
<linearGradient id="paint2_linear_4680_106968" x1="125.246" y1="65.7171" x2="123.853" y2="80.6641" gradientUnits="userSpaceOnUse">
<stop stop-color="#825EE4"/>
<stop offset="1" stop-color="#5E72E4"/>
</linearGradient>
<linearGradient id="paint3_linear_4680_106968" x1="92.6789" y1="113.009" x2="91.8456" y2="117.191" gradientUnits="userSpaceOnUse">
<stop stop-color="#825EE4"/>
<stop offset="1" stop-color="#5E72E4"/>
</linearGradient>
<linearGradient id="paint4_linear_4680_106968" x1="99.4735" y1="113.095" x2="98.6405" y2="117.259" gradientUnits="userSpaceOnUse">
<stop stop-color="#825EE4"/>
<stop offset="1" stop-color="#5E72E4"/>
</linearGradient>
<linearGradient id="paint5_linear_4680_106968" x1="106.755" y1="113.208" x2="105.921" y2="117.39" gradientUnits="userSpaceOnUse">
<stop stop-color="#825EE4"/>
<stop offset="1" stop-color="#5E72E4"/>
</linearGradient>
<linearGradient id="paint6_linear_4680_106968" x1="121.159" y1="113.387" x2="120.326" y2="117.551" gradientUnits="userSpaceOnUse">
<stop stop-color="#825EE4"/>
<stop offset="1" stop-color="#5E72E4"/>
</linearGradient>
<linearGradient id="paint7_linear_4680_106968" x1="128.441" y1="113.499" x2="127.607" y2="117.682" gradientUnits="userSpaceOnUse">
<stop stop-color="#825EE4"/>
<stop offset="1" stop-color="#5E72E4"/>
</linearGradient>
<linearGradient id="paint8_linear_4680_106968" x1="113.548" y1="113.295" x2="112.715" y2="117.459" gradientUnits="userSpaceOnUse">
<stop stop-color="#825EE4"/>
<stop offset="1" stop-color="#5E72E4"/>
</linearGradient>
</defs>
</svg>
